# xmcd
#
# Track frame offsets:
#	150
#	14991
#	31333
#	49876
#	64566
#	82513
#	95895
#	111080
#	124962
#	144336
#
# Disc length: 2133 seconds
#
# Revision: 1
# Processed by: cddbd v1.5.2PL0 Copyright (c) Steve Scherf et al.
# Submitted via: audiograbber 1.83.01
#
DISCID=8508530a
DTITLE=Amanda Lynn - Wild Wind
DYEAR=2003
DGENRE=Country
TTITLE0=Wild Wind
TTITLE1=Can't Be Bought
TTITLE2=Since I Fell For You
TTITLE3=Gonna Party Tonight
TTITLE4=Feelin' So Alone
TTITLE5=I Can Dream About You
TTITLE6=Rainbow in the Sky
TTITLE7=Window Shoppin'
TTITLE8=Daddy's Star
TTITLE9=Because God's Good
EXTD=
EXTT0=
EXTT1=
EXTT2=
EXTT3=
EXTT4=
EXTT5=
EXTT6=
EXTT7=
EXTT8=
EXTT9=
PLAYORDER=
